<mxfile host="app.diagrams.net" agent="Mozilla/5.0 (Windows NT 10.0; Win64; x64) AppleWebKit/537.36 (KHTML, like Gecko) Chrome/132.0.0.0 Safari/537.36 OPR/117.0.0.0" version="26.1.1">
  <diagram name="Page-1" id="10hkS24UuInT2cYbUx8V">
    <mxGraphModel dx="1393" dy="798" grid="1" gridSize="10" guides="1" tooltips="1" connect="1" arrows="1" fold="1" page="1" pageScale="1" pageWidth="850" pageHeight="1100" math="0" shadow="0">
      <root>
        <mxCell id="0" />
        <mxCell id="1" parent="0" />
        <mxCell id="p5ZCDyn5Iownpoi6HtZg-1" value="" style="verticalAlign=top;verticalLabelPosition=bottom;labelPosition=center;align=center;html=1;outlineConnect=0;fillColor=#ffe6cc;strokeColor=#d79b00;gradientDirection=north;strokeWidth=2;shape=mxgraph.networks.server;" parent="1" vertex="1">
          <mxGeometry x="600" y="70" width="80" height="90" as="geometry" />
        </mxCell>
        <mxCell id="p5ZCDyn5Iownpoi6HtZg-2" value="" style="sketch=0;pointerEvents=1;shadow=0;dashed=0;html=1;strokeColor=none;fillColor=#434445;aspect=fixed;labelPosition=center;verticalLabelPosition=bottom;verticalAlign=top;align=center;outlineConnect=0;shape=mxgraph.vvd.virtual_machine;" parent="1" vertex="1">
          <mxGeometry x="500" y="50" width="50" height="50" as="geometry" />
        </mxCell>
        <mxCell id="p5ZCDyn5Iownpoi6HtZg-3" value="" style="verticalAlign=top;verticalLabelPosition=bottom;labelPosition=center;align=center;html=1;outlineConnect=0;fillColor=#dae8fc;strokeColor=#6c8ebf;gradientDirection=north;strokeWidth=2;shape=mxgraph.networks.laptop;" parent="1" vertex="1">
          <mxGeometry x="170" y="180" width="100" height="55" as="geometry" />
        </mxCell>
        <mxCell id="p5ZCDyn5Iownpoi6HtZg-4" value="" style="verticalAlign=top;verticalLabelPosition=bottom;labelPosition=center;align=center;html=1;outlineConnect=0;fillColor=#e1d5e7;strokeColor=#9673a6;gradientDirection=north;strokeWidth=2;shape=mxgraph.networks.laptop;" parent="1" vertex="1">
          <mxGeometry x="50" y="260" width="100" height="55" as="geometry" />
        </mxCell>
        <mxCell id="p5ZCDyn5Iownpoi6HtZg-5" value="" style="fontColor=#333333;verticalAlign=top;verticalLabelPosition=bottom;labelPosition=center;align=center;html=1;outlineConnect=0;fillColor=#f5f5f5;strokeColor=#666666;gradientDirection=north;strokeWidth=2;shape=mxgraph.networks.laptop;" parent="1" vertex="1">
          <mxGeometry x="280" y="260" width="100" height="55" as="geometry" />
        </mxCell>
        <mxCell id="p5ZCDyn5Iownpoi6HtZg-6" value="" style="fontColor=#000000;verticalAlign=top;verticalLabelPosition=bottom;labelPosition=center;align=center;html=1;outlineConnect=0;fillColor=#f0a30a;strokeColor=#BD7000;gradientDirection=north;strokeWidth=2;shape=mxgraph.networks.users;" parent="1" vertex="1">
          <mxGeometry x="175" y="250" width="90" height="100" as="geometry" />
        </mxCell>
        <mxCell id="p5ZCDyn5Iownpoi6HtZg-7" value="" style="endArrow=classic;html=1;rounded=0;" parent="1" edge="1">
          <mxGeometry width="50" height="50" relative="1" as="geometry">
            <mxPoint x="550" y="80" as="sourcePoint" />
            <mxPoint x="590" y="110" as="targetPoint" />
          </mxGeometry>
        </mxCell>
        <mxCell id="p5ZCDyn5Iownpoi6HtZg-9" value="" style="sketch=0;pointerEvents=1;shadow=0;dashed=0;html=1;strokeColor=none;fillColor=#434445;aspect=fixed;labelPosition=center;verticalLabelPosition=bottom;verticalAlign=top;align=center;outlineConnect=0;shape=mxgraph.vvd.wi_fi;rotation=-167;" parent="1" vertex="1">
          <mxGeometry x="390" y="152.5" width="110" height="110" as="geometry" />
        </mxCell>
        <mxCell id="p5ZCDyn5Iownpoi6HtZg-10" value="" style="endArrow=classic;html=1;rounded=0;entryX=0.85;entryY=0.5;entryDx=0;entryDy=0;entryPerimeter=0;" parent="1" target="p5ZCDyn5Iownpoi6HtZg-5" edge="1">
          <mxGeometry width="50" height="50" relative="1" as="geometry">
            <mxPoint x="600" y="160" as="sourcePoint" />
            <mxPoint x="580" y="130" as="targetPoint" />
          </mxGeometry>
        </mxCell>
        <mxCell id="p5ZCDyn5Iownpoi6HtZg-11" value="" style="endArrow=classic;html=1;rounded=0;entryX=0.85;entryY=0.5;entryDx=0;entryDy=0;entryPerimeter=0;" parent="1" target="p5ZCDyn5Iownpoi6HtZg-4" edge="1">
          <mxGeometry width="50" height="50" relative="1" as="geometry">
            <mxPoint x="600" y="150" as="sourcePoint" />
            <mxPoint x="330" y="240" as="targetPoint" />
          </mxGeometry>
        </mxCell>
        <mxCell id="p5ZCDyn5Iownpoi6HtZg-12" value="" style="endArrow=classic;html=1;rounded=0;entryX=0.85;entryY=0.5;entryDx=0;entryDy=0;entryPerimeter=0;" parent="1" target="p5ZCDyn5Iownpoi6HtZg-3" edge="1">
          <mxGeometry width="50" height="50" relative="1" as="geometry">
            <mxPoint x="600" y="140" as="sourcePoint" />
            <mxPoint x="650" y="90" as="targetPoint" />
          </mxGeometry>
        </mxCell>
        <mxCell id="N66a5kBkUMPjj3WKQ4z2-1" value="USERS" style="text;html=1;align=center;verticalAlign=middle;whiteSpace=wrap;rounded=0;" vertex="1" parent="1">
          <mxGeometry x="190" y="350" width="60" height="30" as="geometry" />
        </mxCell>
        <mxCell id="N66a5kBkUMPjj3WKQ4z2-2" value="SERVER WITH MISP/CORTEX/THEHIVE" style="text;html=1;align=center;verticalAlign=middle;whiteSpace=wrap;rounded=0;" vertex="1" parent="1">
          <mxGeometry x="680" y="100" width="160" height="30" as="geometry" />
        </mxCell>
      </root>
    </mxGraphModel>
  </diagram>
</mxfile>
